HIERARCHY
ROOT Hips
{
	OFFSET 0.000000 0.000000 0.000000
	CHANNELS 6 Xposition Yposition Zposition Zrotation Yrotation Xrotation 
	JOINT LowerBack
	{
		OFFSET 0.000000 0.000000 0.000000
		CHANNELS 3 Zrotation Yrotation Xrotation
		JOINT Spine
		{
			OFFSET 0.028270 2.035590 -0.193380
			CHANNELS 3 Zrotation Yrotation Xrotation
			JOINT Spine1
			{
				OFFSET 0.056720 2.048850 -0.042750
				CHANNELS 3 Zrotation Yrotation Xrotation
				JOINT Neck
				{
					OFFSET 0.000000 0.000000 0.000000
					CHANNELS 3 Zrotation Yrotation Xrotation
					JOINT Neck1
					{
						OFFSET -0.054170 1.746240 0.172020
						CHANNELS 3 Zrotation Yrotation Xrotation
						JOINT Head
						{
							OFFSET 0.104070 1.761360 -0.123970
							CHANNELS 3 Zrotation Yrotation Xrotation
							End Site
							{
								OFFSET 0.000000 0.000000 0.000000
							}
						}
					}
				}
				JOINT LeftShoulder
				{
					OFFSET 0.000000 0.000000 0.000000
					CHANNELS 3 Zrotation Yrotation Xrotation
					JOINT LeftArm
					{
						OFFSET 3.362410 1.200890 -0.311210
						CHANNELS 3 Zrotation Yrotation Xrotation
						JOINT LeftForeArm
						{
							OFFSET 4.983000 -0.000000 -0.000000
							CHANNELS 3 Zrotation Yrotation Xrotation
							JOINT LeftHand
							{
								OFFSET 3.483560 -0.000000 -0.000000
								CHANNELS 3 Zrotation Yrotation Xrotation
								JOINT LeftFingerBase
								{
									OFFSET 0.000000 0.000000 0.000000
									CHANNELS 3 Zrotation Yrotation Xrotation
									JOINT LeftHandIndex1
									{
										OFFSET 0.715260 -0.000000 -0.000000
										CHANNELS 3 Zrotation Yrotation Xrotation
										End Site
										{
											OFFSET 0.000000 0.000000 0.000000
										}
									}
								}
								JOINT LThumb
								{
									OFFSET 0.000000 0.000000 0.000000
									CHANNELS 3 Zrotation Yrotation Xrotation
									End Site
									{
										OFFSET 0.000000 0.000000 0.000000
									}
								}
							}
						}
					}
				}
				JOINT RightShoulder
				{
					OFFSET 0.000000 0.000000 0.000000
					CHANNELS 3 Zrotation Yrotation Xrotation
					JOINT RightArm
					{
						OFFSET -3.136600 1.374050 -0.404650
						CHANNELS 3 Zrotation Yrotation Xrotation
						JOINT RightForeArm
						{
							OFFSET -5.241900 -0.000000 -0.000000
							CHANNELS 3 Zrotation Yrotation Xrotation
							JOINT RightHand
							{
								OFFSET -3.444170 -0.000000 -0.000000
								CHANNELS 3 Zrotation Yrotation Xrotation
								JOINT RightFingerBase
								{
									OFFSET 0.000000 0.000000 0.000000
									CHANNELS 3 Zrotation Yrotation Xrotation
									JOINT RightHandIndex1
									{
										OFFSET -0.622530 -0.000000 -0.000000
										CHANNELS 3 Zrotation Yrotation Xrotation
										End Site
										{
											OFFSET 0.000000 0.000000 0.000000
										}
									}
								}
								JOINT RThumb
								{
									OFFSET 0.000000 0.000000 0.000000
									CHANNELS 3 Zrotation Yrotation Xrotation
									End Site
									{
										OFFSET 0.000000 0.000000 0.000000
									}
								}
							}
						}
					}
				}
			}
		}
	}
}
}
MOTION
Frames: 15
Frame Time: 0.008333
4.817163 17.217231 0.752419 -2.546234 -77.153090 16.546294 1.134044 -0.624920 -5.864689 -0.664146 -0.876153 -4.600363 -7.434140 -0.759910 -4.078291 8.985088 0.213471 5.137810 -3.248439 -0.381097 3.516984 0.000000 0.000000 0.000000 9.324434 3.141030 -3.808611 -82.835944 -51.113062 25.502103 -179.684142 -70.028700 179.928818 4.478716 -2.221500 -0.122036 0.012040 0.984784 -0.000000 0.000000 0.000000 0.000000 0.000000 0.000000 0.000000 3.948913 2.004479 -3.980681 70.440382 38.930857 -5.541787 -177.652317 57.596125 179.824780 -8.902380 13.630583 -1.146443 -0.058558 -1.089065 -0.000000 0.000000 0.000000 0.000000 0.000000 0.000000 0.000000 
4.826722 17.218097 0.752585 -2.789624 -78.232123 16.871505 1.210690 -0.570156 -5.839461 -0.636679 -0.826255 -4.605323 -7.313051 -0.709471 -4.107356 8.680170 0.280648 5.031928 -3.243018 -0.379743 3.487824 0.000000 0.000000 0.000000 9.035052 3.134904 -3.655359 -81.975603 -51.143988 24.705548 -179.707266 -70.404633 179.928624 4.504780 -2.203973 -0.121910 0.012696 0.979408 -0.000000 0.000000 0.000000 0.000000 0.000000 0.000000 0.000000 3.983698 2.208890 -3.985784 70.191243 39.479148 -5.273510 -177.649030 59.264254 179.822107 -9.213627 13.379644 -1.164783 -0.059241 -1.068675 -0.000000 0.000000 0.000000 0.000000 0.000000 0.000000 0.000000 
4.835024 17.218769 0.752468 -3.061758 -79.287626 17.241221 1.281945 -0.517192 -5.828032 -0.610567 -0.778235 -4.610755 -7.197862 -0.661132 -4.126610 8.381209 0.315282 4.901393 -3.238997 -0.378201 3.452101 0.000000 0.000000 0.000000 8.742172 3.137837 -3.501723 -81.119804 -51.139400 23.917371 -179.724037 -70.833696 179.928991 4.500851 -2.179872 -0.120678 0.013740 0.973407 -0.000000 0.000000 0.000000 0.000000 0.000000 0.000000 0.000000 4.018504 2.383857 -3.982714 69.991188 39.986860 -4.933497 -177.658310 60.989640 179.818535 -9.613176 13.145985 -1.194414 -0.057558 -1.049044 -0.000000 0.000000 0.000000 0.000000 0.000000 0.000000 0.000000 
4.841964 17.219189 0.751855 -3.354761 -80.317287 17.651661 1.343476 -0.467422 -5.836699 -0.586489 -0.733261 -4.617878 -7.088022 -0.616239 -4.135484 8.095316 0.320621 4.748930 -3.237169 -0.376546 3.410578 0.000000 0.000000 0.000000 8.452221 3.143661 -3.346894 -80.265391 -51.089383 23.129428 -179.734766 -71.311508 179.929962 4.464667 -2.143552 -0.118038 0.015205 0.966625 -0.000000 0.000000 0.000000 0.000000 0.000000 0.000000 0.000000 4.065404 2.531758 -3.968908 69.830336 40.462562 -4.521307 -177.688709 62.776846 179.814948 -10.037435 12.915904 -1.225836 -0.054982 -1.029757 -0.000000 0.000000 0.000000 0.000000 0.000000 0.000000 0.000000 
4.848500 17.219508 0.750747 -3.719639 -81.320283 18.125548 1.403997 -0.421703 -5.835190 -0.563076 -0.692007 -4.620931 -6.984637 -0.574822 -4.134862 7.825737 0.301827 4.578453 -3.238070 -0.374823 3.363975 0.000000 0.000000 0.000000 8.148103 3.154239 -3.186511 -79.395228 -51.013282 22.341978 -179.739375 -71.845735 179.931459 4.400711 -2.093144 -0.114095 0.016876 0.959030 -0.000000 0.000000 0.000000 0.000000 0.000000 0.000000 0.000000 4.134995 2.659478 -3.941739 69.692503 40.924626 -4.044134 -177.746780 64.629687 179.812196 -10.414635 12.693671 -1.250356 -0.053140 -1.010811 -0.000000 0.000000 0.000000 0.000000 0.000000 0.000000 0.000000 
4.854410 17.219504 0.748867 -4.127590 -82.294886 18.651141 1.453328 -0.381253 -5.843807 -0.541967 -0.655371 -4.624440 -6.886598 -0.538412 -4.126200 7.578783 0.266100 4.394086 -3.241827 -0.373109 3.313598 0.000000 0.000000 0.000000 7.848649 3.156613 -3.021817 -78.512482 -50.885466 21.541795 -179.739830 -72.423331 179.933393 4.314184 -2.023737 -0.108844 0.018654 0.950535 -0.000000 0.000000 0.000000 0.000000 0.000000 0.000000 0.000000 4.232845 2.771902 -3.899552 69.573594 41.371284 -3.505120 -177.835175 66.545760 179.811036 -10.687961 12.461308 -1.259671 -0.053097 -0.991765 -0.000000 0.000000 0.000000 0.000000 0.000000 0.000000 0.000000 
4.860110 17.219218 0.746212 -4.607260 -83.240300 19.248956 1.494120 -0.346425 -5.852061 -0.522766 -0.623591 -4.626815 -6.794318 -0.507116 -4.111189 7.356338 0.219969 4.199778 -3.248357 -0.371435 3.260399 0.000000 0.000000 0.000000 7.550178 3.147878 -2.851465 -77.610201 -50.708176 20.726494 -179.737239 -73.042503 179.935593 4.215564 -1.934792 -0.102689 0.020224 0.941178 -0.000000 0.000000 0.000000 0.000000 0.000000 0.000000 0.000000 4.361746 2.875377 -3.841253 69.467143 41.807013 -2.912139 -177.953717 68.522228 179.811942 -10.813137 12.221199 -1.249483 -0.055636 -0.972620 -0.000000 0.000000 0.000000 0.000000 0.000000 0.000000 0.000000 
4.865950 17.218653 0.742681 -5.181412 -84.156426 19.938132 1.525948 -0.317542 -5.855727 -0.505569 -0.596799 -4.627801 -6.707961 -0.481118 -4.092022 7.159474 0.168831 3.998801 -3.257318 -0.369823 3.205225 0.000000 0.000000 0.000000 7.254769 3.123640 -2.675485 -76.686992 -50.476932 19.894390 -179.733137 -73.699831 179.937872 4.115876 -1.826167 -0.095930 0.021317 0.931004 -0.000000 0.000000 0.000000 0.000000 0.000000 0.000000 0.000000 4.520797 2.974579 -3.766755 69.372252 42.230679 -2.271099 -178.098795 70.550002 179.815096 -10.770064 11.972975 -1.218293 -0.060947 -0.953347 -0.000000 0.000000 0.000000 0.000000 0.000000 0.000000 0.000000 
4.871878 17.217734 0.738172 -5.852695 -85.043627 20.728353 1.544851 -0.294805 -5.859385 -0.491081 -0.574975 -4.628842 -6.627346 -0.460637 -4.070596 6.988630 0.117101 3.793940 -3.268196 -0.368283 3.148873 0.000000 0.000000 0.000000 6.969786 3.078938 -2.495578 -75.748077 -50.181226 19.044789 -179.729033 -74.388785 179.940067 4.024916 -1.699674 -0.088966 0.021737 0.920098 -0.000000 0.000000 0.000000 0.000000 0.000000 0.000000 0.000000 4.706296 3.072198 -3.676800 69.294133 42.633363 -1.586537 -178.264669 72.616881 179.820364 -10.563357 11.721074 -1.168402 -0.068689 -0.934020 -0.000000 0.000000 0.000000 0.000000 0.000000 0.000000 0.000000 
4.878433 17.216573 0.732843 -6.728094 -85.902459 21.714189 1.556988 -0.277598 -5.849816 -0.478271 -0.557645 -4.627513 -6.553261 -0.444950 -4.047892 6.840974 0.064487 3.585937 -3.280641 -0.366793 3.091426 0.000000 0.000000 0.000000 6.687770 3.017180 -2.311964 -74.793523 -49.830208 18.186354 -179.725515 -75.110555 179.942026 3.951761 -1.558501 -0.082100 0.021263 0.908575 -0.000000 0.000000 0.000000 0.000000 0.000000 0.000000 0.000000 4.913366 3.167865 -3.573082 69.237013 43.013289 -0.861459 -178.444431 74.711051 179.827309 -10.219825 11.478594 -1.105308 -0.078157 -0.914869 -0.000000 0.000000 0.000000 0.000000 0.000000 0.000000 0.000000 
4.885603 17.215157 0.726731 -7.952304 -86.732895 23.040939 1.563221 -0.265639 -5.826143 -0.466843 -0.544566 -4.623790 -6.485563 -0.433869 -4.024618 6.714006 0.009444 3.374896 -3.294143 -0.365327 3.032918 0.000000 0.000000 0.000000 6.409983 2.938635 -2.126265 -73.830283 -49.421344 17.325005 -179.723204 -75.864119 179.943685 3.900377 -1.404906 -0.075432 0.019866 0.896473 -0.000000 0.000000 0.000000 0.000000 0.000000 0.000000 0.000000 5.135771 3.259062 -3.457609 69.208848 43.361921 -0.095562 -178.631169 76.821360 179.835325 -9.783947 11.254913 -1.035513 -0.088324 -0.896037 -0.000000 0.000000 0.000000 0.000000 0.000000 0.000000 0.000000 
4.892951 17.213411 0.719679 -9.657754 -87.534528 24.855377 1.554602 -0.259621 -5.803638 -0.458148 -0.536113 -4.620890 -6.423415 -0.428180 -4.001428 6.607035 -0.049133 3.161058 -3.308063 -0.363868 2.973570 0.000000 0.000000 0.000000 6.148129 2.839572 -1.941605 -72.872394 -48.939928 16.465783 -179.722666 -76.643591 179.945060 3.870268 -1.237862 -0.068861 0.017648 0.883722 -0.000000 0.000000 0.000000 0.000000 0.000000 0.000000 0.000000 5.367289 3.343034 -3.332476 69.221066 43.663128 0.713024 -178.818472 78.934049 179.843849 -9.305170 11.041897 -0.964115 -0.098090 -0.877375 -0.000000 0.000000 0.000000 0.000000 0.000000 0.000000 0.000000 
4.900419 17.211362 0.711766 -12.439612 -88.301777 27.749889 1.533944 -0.260610 -5.779615 -0.451064 -0.533484 -4.617935 -6.366677 -0.429024 -3.977281 6.516949 -0.115808 2.943241 -3.322194 -0.362389 2.913032 0.000000 0.000000 0.000000 5.897303 2.724676 -1.758823 -71.927341 -48.392323 15.620269 -179.723337 -77.449768 179.946195 3.857935 -1.059743 -0.062289 0.014709 0.870346 -0.000000 0.000000 0.000000 0.000000 0.000000 0.000000 0.000000 5.603677 3.414126 -3.200175 69.279291 43.912310 1.566992 -179.001541 81.042968 179.852199 -8.835796 10.855576 -0.898015 -0.106454 -0.859161 -0.000000 0.000000 0.000000 0.000000 0.000000 0.000000 0.000000 
4.907740 17.208969 0.702920 -17.936374 -89.014268 33.368467 1.496808 -0.274209 -5.762508 -0.444530 -0.542068 -4.616365 -6.314215 -0.442107 -3.951903 6.443079 -0.193184 2.721305 -3.335930 -0.360868 2.851347 0.000000 0.000000 0.000000 5.661684 2.590556 -1.578755 -71.005456 -47.773250 14.796082 -179.724789 -78.283106 179.947228 3.855490 -0.868868 -0.055415 0.011256 0.856227 -0.000000 0.000000 0.000000 0.000000 0.000000 0.000000 0.000000 5.841074 3.466750 -3.062937 69.389111 44.099351 2.468704 -179.176620 83.142007 179.859940 -8.416370 10.691239 -0.840614 -0.112691 -0.841297 -0.000000 0.000000 0.000000 0.000000 0.000000 0.000000 0.000000 
4.914821 17.206365 0.693368 -35.657037 -89.553961 51.213179 1.481696 -0.321398 -5.746225 -0.424588 -0.586681 -4.613178 -6.265649 -0.491899 -3.922894 6.385359 -0.286016 2.495452 -3.348769 -0.359279 2.788442 0.000000 0.000000 0.000000 5.428027 2.431587 -1.396948 -70.110492 -47.099719 14.008060 -179.724436 -79.149208 179.948310 3.853580 -0.663286 -0.048031 0.007235 0.841313 -0.000000 0.000000 0.000000 0.000000 0.000000 0.000000 0.000000 6.078601 3.484285 -2.923999 69.545149 44.224434 3.418159 -179.341206 85.235768 179.866697 -8.075194 10.560503 -0.795116 -0.116549 -0.823858 -0.000000 0.000000 0.000000 0.000000 0.000000 0.000000 0.000000 
